# xmcd
#
# Track frame offsets: 
#        150
#        6698
#        19587
#        36844
#        41877
#        55885
#        72475
#        85653
#        102639
#        116238
#        135737
#        149197
#        167882
#        188726
#
# Disc length: 2953 seconds
#
# Revision: 0
# Processed by: cddbd v1.5.2PL0 Copyright (c) Steve Scherf et al.
# Submitted via: ExactAudioCopyFreeDBPlugin 1.0
#
DISCID=d80b870e
DTITLE=Blaze Ya Dead Homie - The Casket Factory
DYEAR=2016
DGENRE=The Wicked Shit
TTITLE0=The Funeral (Introduction)
TTITLE1=Middle Fingers
TTITLE2=Ghost
TTITLE3=Call Now (Commercial Break)
TTITLE4=The Way U look B4 U Die
TTITLE5=Ratchet
TTITLE6=Eternal
TTITLE7=They Call That Gangsta
TTITLE8=Worm Food
TTITLE9=Who U Lookin' 4
TTITLE10=Unbreakable
TTITLE11=Electric Witch
TTITLE12=Necromancy
TTITLE13=I Will Bury U
EXTD=
EXTT0=
EXTT1=
EXTT2=
EXTT3=
EXTT4=
EXTT5=
EXTT6=
EXTT7=
EXTT8=
EXTT9=
EXTT10=
EXTT11=
EXTT12=
EXTT13=
PLAYORDER=
